<svg width="60" height="23" viewBox="0 0 60 23" fill="none" xmlns="http://www.w3.org/2000/svg">
<g id="Logo Pintro">
<path id="Vector" d="M6.12579 15.7379C6.12579 15.7379 4.73677 16.1154 4.127 15.9438V11.3915C4.127 11.3915 4.05923 10.6597 4.60125 10.5567C5.14334 10.4538 6.05802 10.2822 6.76945 10.8312C7.48098 11.3802 7.51482 12.2037 7.5487 12.9243C7.58259 13.6448 7.58259 15.3604 6.12579 15.7379ZM11.4447 13.0272C11.343 10.3508 9.4459 8.60092 8.02299 7.9489C4.73677 6.74793 2.06043 7.67445 1.28122 7.9489C0.502 8.22346 0.5 9.25283 0.5 9.25283V20.5417C0.806897 22.6005 3.21225 22.2537 3.68656 22.2537C4.16089 22.2537 4.127 21.5368 4.127 21.5368C4.127 21.5368 4.16089 19.3751 4.127 19.0319C4.09312 18.6889 4.29643 18.6203 4.73677 18.6545C5.17722 18.6889 5.51602 18.6545 7.61647 18.3458C9.68304 17.7281 11.5463 15.7036 11.4447 13.0272Z" fill="white"/>
<path id="Vector_2" d="M13.2742 8.18943V16.4587C13.2742 16.4587 13.3081 18.346 14.3922 18.5519C15.4763 18.7577 16.4927 18.7235 16.4927 18.7235C16.4927 18.7235 16.8315 18.6891 16.8654 18.243C16.8992 17.797 16.8654 9.45905 16.8654 9.45905C16.8654 9.45905 17.2041 7.88061 15.2391 7.53747C13.2742 7.19438 13.2742 7.64037 13.2742 8.18943Z" fill="white"/>
<path id="Vector_3" d="M18.7285 10.4477V16.9387C18.7285 16.9387 18.8979 18.3456 19.8126 18.5514C20.7273 18.7573 21.8792 18.7251 21.8792 18.7251C21.8792 18.7251 22.2519 18.723 22.3196 18.0367C22.3874 17.3505 22.3196 10.8997 22.3196 10.8997C22.3196 10.8997 22.2519 10.2135 23.1327 10.2477C24.0135 10.282 24.4201 10.1105 25.0299 10.6251C25.6398 11.1399 25.6059 11.2428 25.6398 12.1006C25.6736 12.9584 25.6398 16.973 25.6398 16.973C25.6398 16.973 25.843 18.0367 26.3851 18.3456C26.9271 18.6544 27.0627 18.6929 27.7063 18.7251C28.35 18.7573 28.8581 18.7251 28.8581 18.7251C28.8581 18.7251 29.2985 18.6201 29.3324 18.2769C29.3663 17.9338 29.3324 11.1045 29.3324 11.1045C29.3324 11.1045 29.163 8.5664 26.3172 7.84585C24.3523 7.34864 19.3383 7.04487 18.7285 10.4477Z" fill="white"/>
<path id="Vector_4" d="M31.0602 6.23354V14.8124C31.0602 14.8124 31.1618 16.8362 31.941 17.5567C32.7202 18.2773 33.1945 18.4832 34.0753 18.5861C34.9562 18.689 36.5532 18.7127 36.5532 18.7127C36.5532 18.7127 37.5832 18.5272 37.8358 17.4194C38.1303 16.1276 37.7003 15.6695 37.0905 15.6695C36.4807 15.6695 34.7529 16.1857 34.7191 14.8124C34.6851 13.4392 34.7529 11.3918 34.7529 11.3918H36.7857H37.2708C37.2708 11.3918 37.8786 11.449 37.908 10.8657C37.9375 10.2824 37.908 9.15011 37.908 9.15011C37.908 9.15011 37.8358 8.63537 36.9889 8.63537C36.1419 8.63537 34.7529 8.60105 34.7529 8.60105V6.95409C34.7529 6.95409 34.6843 6.11201 33.8992 5.81502C33.2386 5.56506 32.5541 5.56506 32.5541 5.56506L31.5006 5.61589C31.5006 5.61589 31.0602 5.66058 31.0602 6.23354Z" fill="white"/>
<path id="Vector_5" d="M39.6667 11.3912V16.6224V17.1787C39.6667 17.1787 39.8799 17.8992 40.1396 18.0937C40.3994 18.2881 40.6478 18.5626 41.0543 18.6084C41.4609 18.6541 42.9853 18.6084 42.9853 18.6084C42.9853 18.6084 43.2789 18.6999 43.3129 18.2081C43.3468 17.7163 43.3129 11.7458 43.3129 11.7458C43.3129 11.7458 43.2903 10.5907 44.476 10.5449C45.6391 10.5 47.3104 10.4877 47.3104 10.4877C47.3104 10.4877 47.6606 10.4992 47.6944 10.1675C47.7283 9.8358 47.6944 8.73779 47.6944 8.73779C47.6944 8.73779 47.4686 7.52536 46.3845 7.52536H43.5726C43.5726 7.52536 43.016 7.4672 42.4546 7.62832C42.0316 7.74974 41.4427 7.89571 40.7155 8.64623C40.1283 9.25242 39.7697 9.77835 39.6667 11.3912Z" fill="white"/>
<path id="Vector_6" d="M53.835 15.1774C52.6801 15.1774 51.7437 14.2566 51.7437 13.1207C51.7437 11.9848 52.6801 11.064 53.835 11.064C54.9899 11.064 55.9266 11.9848 55.9266 13.1207C55.9266 14.2566 54.9899 15.1774 53.835 15.1774ZM53.835 7.51514C50.7063 7.51514 48.17 10.0095 48.17 13.0863C48.17 16.1633 50.7063 18.6576 53.835 18.6576C56.9641 18.6576 59.5001 16.1633 59.5001 13.0863C59.5001 10.0095 56.9641 7.51514 53.835 7.51514Z" fill="white"/>
<path id="Vector_7" d="M10.6356 2.42746L13.151 5.60007C13.151 5.60007 13.3882 5.9254 13.6366 5.99393C13.8851 6.06257 14.1222 6.05117 14.3367 5.89108C14.5513 5.73089 14.6642 5.5594 14.6642 5.26192C14.6642 4.96456 14.2464 3.90088 14.2464 3.90088L13.2075 0.892843C13.2075 0.892843 12.9478 0.298037 12.3831 0.103631C11.8184 -0.0908456 11.299 0.0121135 10.9941 0.217961C10.6892 0.423879 10.4428 0.64377 10.2884 1.16161C10.1246 1.71065 10.6356 2.42746 10.6356 2.42746Z" fill="white"/>
<path id="Vector_8" d="M17.0141 2.80749L16.4257 5.53017C16.4257 5.53017 16.3565 5.79816 16.4272 5.96178C16.4979 6.1255 16.6059 6.24866 16.7825 6.29563C16.9591 6.34266 17.0979 6.32984 17.2545 6.20196C17.411 6.07407 17.7913 5.39105 17.7913 5.39105L18.928 3.53639C18.928 3.53639 19.1294 3.14034 18.9889 2.75181C18.8485 2.36329 18.5709 2.12703 18.3313 2.05093C18.0918 1.97484 17.8702 1.93632 17.5311 2.07563C17.1717 2.22326 17.0141 2.80749 17.0141 2.80749Z" fill="white"/>
</g>
</svg>
