<svg width="32" height="32" viewBox="0 0 32 32" fill="none" xmlns="http://www.w3.org/2000/svg">
<g id="menu 1" clip-path="url(#clip0_5_11079)">
<g id="Group">
<g id="Group_2">
<g id="Group_3">
<path id="Vector" d="M11.6247 0H2.43734C1.09388 0 0.0010376 1.09284 0.0010376 2.4363V11.6236C0.0010376 12.9671 1.09388 14.0599 2.43734 14.0599H11.6247C12.9681 14.0599 14.061 12.9671 14.061 11.6236V2.4363C14.0607 1.09284 12.9681 0 11.6247 0Z" fill="#333333"/>
<path id="Vector_2" d="M29.5636 0H20.3763C19.0328 0 17.94 1.09284 17.94 2.4363V11.6236C17.94 12.9671 19.0328 14.0599 20.3763 14.0599H29.5636C30.9071 14.0599 31.9999 12.9671 31.9999 11.6236V2.4363C31.9999 1.09284 30.9071 0 29.5636 0Z" fill="#DDF1F1"/>
<path id="Vector_3" d="M11.6237 17.9402H2.43642C1.09297 17.9402 0.00012207 19.0329 0.00012207 20.3764V29.5637C0.00012207 30.9071 1.09297 32 2.43642 32H11.6237C12.9672 32 14.06 30.9071 14.06 29.5637V20.3764C14.0598 19.0329 12.9672 17.9402 11.6237 17.9402Z" fill="#DDF1F1"/>
<path id="Vector_4" d="M29.5636 17.9402H20.3763C19.0328 17.9402 17.94 19.033 17.94 20.3765V29.5638C17.94 30.9073 19.0328 32.0001 20.3763 32.0001H29.5636C30.9071 32 31.9999 30.9071 31.9999 29.5637V20.3764C31.9999 19.0329 30.9071 17.9402 29.5636 17.9402Z" fill="#DDF1F1"/>
</g>
</g>
</g>
</g>
<defs>
<clipPath id="clip0_5_11079">
<rect width="32" height="32" fill="white"/>
</clipPath>
</defs>
</svg>
